<?xml version="1.0" standalone="no"?>
<!DOCTYPE svg PUBLIC "-//W3C//DTD SVG 1.1//EN" "http://www.w3.org/Graphics/SVG/1.1/DTD/svg11.dtd" >
<svg xmlns="http://www.w3.org/2000/svg">
<metadata>Generated by IcoMoon</metadata>
<defs>
<font id="iconfont55" horiz-adv-x="1024">
<font-face units-per-em="1024" ascent="960" descent="-64" />
<missing-glyph horiz-adv-x="1024" />
<glyph unicode="&#x20;" horiz-adv-x="512" d="" />
<glyph unicode="&#xe900;" glyph-name="01" horiz-adv-x="757" d="M686.308 335.208c-0.892 0.295-2.973 1.184-11.442 1.184-27.789 0-102.388-8.73-115.319-48.826 0 0-106.548-30.923-107.291-31.662-0.148 0-0.297 0-0.444-0.148-32.247-13.76-62.712-28.703-91.689-44.24l-168.221 96.763c-0.743 0.444-1.484 0.741-2.229 0.741l-115.912 19.677c-2.822 0.443-5.497-0.887-6.835-3.256-1.338-2.365-1.191-5.472 0.595-7.544l75.043-90.255c0.446-0.592 1.189-1.183 1.784-1.478l123.786-71.316c-60.183-42.167-110.858-89.366-150.98-141.446-2.083-2.662-3.567-4.586-4.756-6.064-1.784-2.221-2.081-5.329-0.595-7.693l0.446-0.743c1.187-2.070 3.418-3.254 5.646-3.254 0.446 0 0.743 0 1.189 0.151 1.783 0.295 4.31 0.592 7.58 1.033 84.85 11.246 171.637 41.725 259.017 90.55l204.182-117.626c1.040-0.592 2.227-0.886 3.418-0.886 0.595 0 1.187 0.148 1.783 0.295 1.786 0.441 3.119 1.626 4.013 3.108l40.868 70.575c1.783 3.108 0.743 7.252-2.378 9.025l-160.938 92.622c9.359 6.512 18.725 13.17 28.084 20.121 0.448 0.297 0.746 0.741 1.043 1.186 0.295 0.149 80.691 75.901 80.691 75.901 2.227-0.443 4.457-0.592 6.688-0.592 45.916 0 96.294 76.936 97.63 86.407 0.297 1.48-0.444 3.551-1.187 4.882-0.744 1.329-1.932 2.362-3.27 2.808zM502.042 180.596c-5.353 8.728-30.762 52.523-38.045 65.839l100.159 28.703c1.191-1.926 12.336-21.304 13.375-23.231l-75.489-71.311zM179.719 297.48l-32.099-54.744-58.105 69.984 90.204-15.24zM132.313 11.186c39.679 50.009 89.46 95.579 148.604 136.563l91.244-52.523c-80.988-44.391-161.235-72.499-239.848-84.040zM590.754-15.299l-432.883 249.306 14.268 24.414 432.732-249.161-14.117-24.558zM611.71 20.803l-432.735 249.009 13.522 23.080 432.438-249.012-13.225-23.077zM463.851 152.038l-90.055 51.785c24.816 13.17 50.526 25.746 77.721 37.434 7.727-14.056 34.474-59.921 40.273-69.392-9.364-6.806-18.579-13.465-27.938-19.828zM591.501 254.572c-2.378 4.145-15.455 26.93-18.281 31.515 12.188 27.667 71.927 36.839 100.753 36.99-12.334-19.828-51.713-70.132-82.472-68.505zM199.779 599.457c6.389-19.086 16.495-36.545 30.612-53.263 6.094-7.547 23.478-26.336 23.478-26.336 16.646-16.275 28.088-29.149 28.088-44.83v-91.733c0-50.306 39.084-84.781 97.189-88.183 0.592-0.148 2.078-0.297 2.673-0.297 0.151 0 1.341 0 1.487 0s0.889 0 1.040 0c0.592 0 1.783 0 2.378 0.297 58.104 3.402 95.998 37.876 95.998 88.183 0 0 0.148 92.028-0.151 93.063 0.743 14.945 13.375 27.521 29.424 43.353 22.735 22.342 50.968 50.009 60.926 98.983 4.31 16.273 6.54 33.142 6.54 50.156 0 107.86-87.974 195.597-196.157 195.597s-196.157-87.737-196.157-195.597c0.002-23.969 4.311-47.347 12.633-69.392zM378.253 450.761c25.56 0 58.402 3.846 91.095 14.797v-35.807c-93.62-30.773-153.063-6.656-173.866-0.148v35.361c20.803-5.472 43.836-14.203 82.771-14.203zM383.752 643.4c-10.105 0-18.277 8.137-18.277 18.197s8.172 18.199 18.277 18.199 18.277-8.137 18.277-18.199c-0.002-10.060-8.174-18.197-18.277-18.197zM384.792 308.28c-0.297 0-0.595 0-0.889-0.149-0.297 0-2.23 0-2.527 0.149-40.717 1.926-86.042 22.785-86.042 75.015v31.958c20.805-5.474 43.838-14.203 82.772-14.203 25.559 0 58.401 3.846 91.093 14.797v-32.551c0.149-52.23-43.689-72.945-84.407-75.015zM383.306 851.13c100.753 0 182.782-81.82 182.782-182.283 0-15.83-2.080-31.513-6.092-47.050-9.212-45.275-35.961-71.464-57.361-92.472-16.646-16.422-31.799-30.775-34.029-49.417-29.127-10.061-52.754-14.206-79.504-15.24v166.154c13.375 3.107 25.71 15.683 25.71 30.775 0 17.459-13.82 31.513-31.358 31.513-17.385 0-32.097-14.203-32.097-31.513 0-15.091 10.998-27.668 24.371-30.775v-166.451c-40.123 0.591-69.547 11.541-78.018 15.24-2.080 18.791-16.196 33.289-32.989 49.712 0 0-18.13 18.199-23.925 25.301-13.375 15.829-22.29 31.365-28.383 49.415-7.875 20.713-11.887 42.613-11.887 64.806-0.151 100.464 82.026 182.284 182.78 182.284z" />
<glyph unicode="&#xe901;" glyph-name="02" horiz-adv-x="757" d="M686.153 335.32c-0.892 0.295-2.973 1.184-11.442 1.184-27.789 0-102.391-8.73-115.319-48.826 0 0-106.548-30.923-107.291-31.662-0.151 0-0.297 0-0.448-0.148-32.247-13.76-62.709-28.703-91.687-44.24l-168.221 96.763c-0.743 0.444-1.484 0.741-2.229 0.741l-115.912 19.677c-2.822 0.443-5.497-0.887-6.835-3.256-1.338-2.365-1.191-5.472 0.595-7.544l75.045-90.253c0.446-0.592 1.189-1.183 1.784-1.478l123.786-71.316c-60.183-42.167-110.858-89.363-150.98-141.443-2.083-2.665-3.567-4.586-4.756-6.067-1.784-2.221-2.081-5.326-0.595-7.693l0.446-0.74c1.187-2.070 3.418-3.254 5.646-3.254 0.446 0 0.743 0 1.189 0.148 1.783 0.297 4.31 0.592 7.58 1.037 84.85 11.243 171.637 41.722 259.016 90.547l204.182-117.623c1.040-0.592 2.23-0.889 3.418-0.889 0.595 0 1.191 0.148 1.786 0.297 1.783 0.441 3.119 1.626 4.013 3.105l40.868 70.575c1.783 3.108 0.743 7.252-2.381 9.028l-160.938 92.618c9.363 6.512 18.725 13.17 28.088 20.121 0.444 0.297 0.743 0.741 1.040 1.186 0.297 0.149 80.691 75.901 80.691 75.901 2.23-0.443 4.457-0.592 6.688-0.592 45.919 0 96.297 76.936 97.633 86.407 0.295 1.48-0.448 3.551-1.191 4.882s-1.935 2.364-3.268 2.808zM501.882 180.707c-5.35 8.728-30.762 52.523-38.045 65.839l100.161 28.703c1.187-1.926 12.333-21.304 13.375-23.231l-75.491-71.311zM590.599-15.188l-432.884 249.306 14.268 24.414 432.733-249.158-14.117-24.561zM611.551 20.914l-432.733 249.009 13.522 23.080 432.44-249.009-13.228-23.080zM155.293 660.971c0 3.697-2.972 6.658-6.686 6.658h-53.417c-3.715 0-6.688-2.961-6.688-6.658s2.973-6.658 6.688-6.658h53.417c3.715 0 6.686 2.959 6.686 6.658zM671.106 667.629h-53.417c-3.715 0-6.688-2.961-6.688-6.658s2.973-6.658 6.688-6.658h53.417c3.715 0 6.688 2.961 6.688 6.658s-2.973 6.658-6.688 6.658zM167.479 453.88c1.783 0 3.418 0.592 4.754 1.924l38.681 38.592c2.675 2.664 2.675 6.807 0 9.469s-6.835 2.662-9.51 0l-38.681-38.592c-2.675-2.662-2.675-6.806 0-9.469 1.338-1.332 2.972-1.924 4.756-1.924zM560.134 814.081c1.783 0 3.421 0.592 4.754 1.922l38.683 38.592c2.675 2.664 2.675 6.807 0 9.469-2.527 2.662-6.839 2.662-9.51 0l-38.683-38.74c-2.675-2.664-2.675-6.806 0-9.469 1.34-1.183 2.975-1.775 4.756-1.775zM382.257 887.17c3.715 0 6.688 2.959 6.688 6.658v53.229c0 3.697-2.973 6.658-6.688 6.658-3.716 0-6.688-2.961-6.688-6.658v-53.229c0-3.699 2.973-6.658 6.688-6.658zM564.889 503.866c-2.675 2.662-6.835 2.662-9.51 0s-2.675-6.806 0-9.469l38.683-38.592c1.338-1.332 2.97-1.924 4.754-1.924s3.418 0.592 4.754 1.924c2.675 2.664 2.675 6.807 0 9.469l-38.681 38.592zM201.405 816.003c1.337-1.33 2.973-1.922 4.754-1.922s3.418 0.592 4.754 1.922c2.675 2.664 2.675 6.807 0 9.469l-38.681 38.592c-2.675 2.662-6.835 2.662-9.51 0s-2.675-6.806 0-9.469l38.683-38.592zM199.622 599.569c6.389-19.086 16.495-36.545 30.612-53.263 6.094-7.547 23.478-26.336 23.478-26.336 16.646-16.275 28.088-29.149 28.088-44.83v-91.733c0-50.306 39.084-84.781 97.189-88.183 0.591-0.148 2.080-0.297 2.675-0.297 0.148 0 1.338 0 1.484 0s0.892 0 1.040 0c0.595 0 1.786 0 2.378 0.297 58.104 3.402 95.998 37.876 95.998 88.183 0 0 0.151 92.028-0.148 93.063 0.743 14.945 13.375 27.521 29.421 43.353 22.738 22.342 50.972 50.009 60.929 98.983 4.31 16.273 6.537 33.142 6.537 50.156 0 107.86-87.974 195.597-196.157 195.597-108.182 0-196.156-87.737-196.156-195.597 0.002-23.969 4.311-47.347 12.633-69.392zM384.635 308.391c-0.297 0-0.595 0-0.892-0.149-0.297 0-2.23 0-2.527 0.149-40.715 1.926-86.041 22.785-86.041 75.015v31.958c20.805-5.474 43.838-14.203 82.772-14.203 25.56 0 58.402 3.846 91.095 14.797v-32.551c0.149-52.23-43.69-72.943-84.407-75.015zM383.147 851.242c100.753 0 182.785-81.82 182.785-182.283 0-15.83-2.083-31.513-6.092-47.050-9.215-45.275-35.964-71.464-57.364-92.472-16.642-16.422-31.799-30.775-34.029-49.417-29.127-10.061-52.754-14.206-79.501-15.24v166.155c13.375 3.107 25.706 15.683 25.706 30.775 0 17.459-13.82 31.513-31.358 31.513-17.384 0-32.096-14.203-32.096-31.513 0-15.091 10.998-27.668 24.371-30.775v-166.451c-40.123 0.591-69.547 11.541-78.018 15.24-2.080 18.791-16.196 33.289-32.989 49.712 0 0-18.13 18.199-23.925 25.301-13.375 15.829-22.29 31.365-28.383 49.415-7.875 20.713-11.887 42.613-11.887 64.806-0.151 100.464 82.026 182.283 182.779 182.283z" />
<glyph unicode="&#xe902;" glyph-name="03" horiz-adv-x="757" d="M53.263 874.519h-42.039c-3.663 0-6.634-2.97-6.634-6.634s2.972-6.634 6.634-6.634h42.039c3.666 0 6.636 2.97 6.636 6.634s-2.97 6.634-6.636 6.634zM80.379 888.525c3.664 0 6.634 2.972 6.634 6.636v42.281c0 3.666-2.97 6.636-6.634 6.636s-6.634-2.97-6.634-6.636v-42.281c0.002-3.666 2.97-6.636 6.634-6.636zM676.492 944.269c-3.666 0-6.636-2.972-6.636-6.634v-42.283c0-3.664 2.97-6.634 6.636-6.634 3.663 0 6.636 2.97 6.636 6.634v42.283c0 3.663-2.973 6.634-6.636 6.634zM703.626 861.25h42.021c3.663 0 6.636 2.97 6.636 6.634s-2.973 6.634-6.636 6.634h-42.021c-3.666 0-6.636-2.97-6.636-6.634s2.97-6.634 6.636-6.634zM745.647 19.012h-42.036c-3.666 0-6.636-2.972-6.636-6.636s2.97-6.636 6.636-6.636h42.036c3.663 0 6.636 2.972 6.636 6.636s-2.973 6.636-6.636 6.636zM676.492-8.262c-3.666 0-6.636-2.972-6.636-6.636v-42.288c0-3.664 2.97-6.636 6.636-6.636 3.663 0 6.636 2.972 6.636 6.636v42.288c0 3.664-2.973 6.636-6.636 6.636zM80.379-8.458c-3.664 0-6.634-2.972-6.634-6.636v-42.272c0-3.664 2.97-6.636 6.634-6.636s6.634 2.972 6.634 6.636v42.272c0 3.664-2.97 6.636-6.634 6.636zM53.247 19.012h-42.024c-3.663 0-6.634-2.972-6.634-6.636s2.972-6.636 6.634-6.636h42.024c3.666 0 6.636 2.972 6.636 6.636s-2.97 6.636-6.636 6.636zM676.492 874.519h-596.113c-3.664 0-6.634-2.97-6.634-6.634v-855.5c0-3.664 2.97-6.636 6.634-6.636h596.113c3.663 0 6.636 2.972 6.636 6.636v855.5c0 3.664-2.973 6.634-6.636 6.634zM669.858 19.020h-582.845v842.23h582.845v-842.23zM147.349 444.469h98.956c3.325-67.95 57.791-122.639 125.507-126.048v-99.176c0-3.664 2.972-6.636 6.634-6.636 3.666 0 6.636 2.972 6.636 6.636v99.173c67.804 3.334 122.361 58.052 125.69 126.051h98.75c3.663 0 6.636 2.972 6.636 6.636s-2.973 6.634-6.636 6.634h-98.75c-3.374 67.982-57.917 122.671-125.69 126.007v99.272c0 3.663-2.97 6.634-6.636 6.634-3.663 0-6.634-2.972-6.634-6.634v-99.276c-67.686-3.407-122.135-58.069-125.504-126.002h-98.959c-3.663 0-6.634-2.97-6.634-6.634s2.972-6.636 6.634-6.636zM259.597 444.469h112.215v-112.746c-60.395 3.382-108.918 52.118-112.215 112.746zM385.081 331.712v112.757h112.397c-3.3-60.678-51.912-109.448-112.397-112.757zM497.473 457.738h-112.393v112.715c60.455-3.309 109.046-52.052 112.393-112.715zM371.812 570.44v-112.702h-112.209c3.344 60.612 51.845 109.321 112.209 112.702z" />
<glyph unicode="&#xe903;" glyph-name="04" horiz-adv-x="757" d="M676.492 874.531h-596.115c-3.664 0-6.634-2.97-6.634-6.634v-855.5c0-3.663 2.97-6.636 6.634-6.636h596.115c3.663 0 6.636 2.973 6.636 6.636v855.501c0 3.664-2.973 6.633-6.636 6.633zM669.858 19.034h-582.846v842.23h582.846v-842.23zM149.417 373.653h458.028c3.688 0 6.678 2.99 6.678 6.678 0 3.691-2.99 6.678-6.678 6.678h-458.028c-3.688 0-6.678-2.987-6.678-6.678 0-3.688 2.992-6.678 6.678-6.678zM419.484 671.188h187.97c3.689 0 6.678 2.989 6.678 6.678s-2.989 6.678-6.678 6.678h-187.97c-3.689 0-6.678-2.989-6.678-6.678s2.989-6.678 6.678-6.678zM419.484 626.419h187.97c3.689 0 6.678 2.989 6.678 6.678s-2.989 6.678-6.678 6.678h-187.97c-3.689 0-6.678-2.989-6.678-6.678s2.989-6.678 6.678-6.678zM419.484 581.648h187.97c3.689 0 6.678 2.989 6.678 6.678s-2.989 6.678-6.678 6.678h-187.97c-3.689 0-6.678-2.989-6.678-6.678s2.989-6.678 6.678-6.678zM419.484 536.877h187.97c3.689 0 6.678 2.989 6.678 6.678s-2.989 6.678-6.678 6.678h-187.97c-3.689 0-6.678-2.989-6.678-6.678s2.989-6.678 6.678-6.678zM149.417 326.086h458.028c3.688 0 6.678 2.987 6.678 6.678 0 3.688-2.99 6.678-6.678 6.678h-458.028c-3.688 0-6.678-2.99-6.678-6.678 0-3.691 2.992-6.678 6.678-6.678zM149.417 278.517h458.028c3.688 0 6.678 2.99 6.678 6.678 0 3.691-2.99 6.678-6.678 6.678h-458.028c-3.688 0-6.678-2.987-6.678-6.678 0-3.688 2.992-6.678 6.678-6.678zM149.417 230.95h458.028c3.688 0 6.678 2.987 6.678 6.678 0 3.688-2.99 6.678-6.678 6.678h-458.028c-3.688 0-6.678-2.99-6.678-6.678 0-3.691 2.992-6.678 6.678-6.678zM149.417 183.38h458.028c3.688 0 6.678 2.987 6.678 6.678 0 3.688-2.99 6.678-6.678 6.678h-458.028c-3.688 0-6.678-2.99-6.678-6.678 0-3.691 2.992-6.678 6.678-6.678zM149.417 135.798h458.028c3.688 0 6.678 2.987 6.678 6.678 0 3.688-2.99 6.678-6.678 6.678h-458.028c-3.688 0-6.678-2.99-6.678-6.678 0-3.691 2.992-6.678 6.678-6.678zM149.417 88.229h458.028c3.688 0 6.678 2.99 6.678 6.678 0 3.691-2.99 6.678-6.678 6.678h-458.028c-3.688 0-6.678-2.987-6.678-6.678 0-3.688 2.992-6.678 6.678-6.678zM149.524 443.516h225.483c3.746 0 6.782 3.038 6.782 6.784v231.311c0 3.748-3.038 6.784-6.782 6.784h-225.483c-3.748 0-6.784-3.038-6.784-6.784v-231.311c-0.002-3.748 3.036-6.784 6.784-6.784zM149.524 746.328h457.995c3.746 0 6.782 3.038 6.782 6.784v41.249c0 3.748-3.038 6.784-6.782 6.784h-457.995c-3.748 0-6.784-3.038-6.784-6.784v-41.249c-0.002-3.748 3.036-6.784 6.784-6.784z" />
<glyph unicode="&#xe904;" glyph-name="05" horiz-adv-x="757" d="M661.172 776.847c-0.003 0-0.006 0-0.013 0-0.135 0-154.671 21.315-154.671 21.315 0.126 0.347 0.245 0.697 0.316 1.074 0.641 3.426 15.317 84.396-19.418 128.212-13.355 16.845-32.138 25.928-55.83 26.993-12.449 0.562-23.936-1.866-34.345-7.231-8.436 3.289-17.814 5.197-28.121 5.661-19.801 0.884-37.152-5.759-51.601-19.765-24.191-23.456-36.33-63.947-42.413-99.898l-75.233 10.391c-3.656 0.507-7.025-2.048-7.531-5.701-0.093-0.683-0.019-97.908-0.019-97.908-5.648-4.412-11.084-9.237-16.256-14.48-30.041-30.442-50.064-73.46-56.382-121.125-5.387-40.692-0.547-81.263 12.227-117.775-21.368-36.762-42.416-76.072-42.416-150.152v-287.234c0-2.384 1.271-4.586 3.331-5.781 1.037-0.598 463.021-91.96 463.021-91.96 1.911-0.41 3.402-0.883 4.991-0.060 0.028 0.011 102.806 58.993 102.806 58.993 2.073 1.192 3.788 3.402 3.785 5.794v753.948c0.008 3.689-2.538 6.685-6.229 6.691zM430.956 941.099c19.645-0.884 35.107-8.262 45.947-21.929 30.962-39.021 16.917-116.698 16.774-117.478-0.11-0.592-0.113-1.173-0.068-1.747l-47.618 6.592c0.046 0.174 0.119 0.338 0.154 0.52 0.58 3.104 13.836 76.491-19.253 118.215-4.242 5.348-9.047 9.93-14.396 13.741 5.769 1.681 11.901 2.381 18.46 2.086zM397.979 932.186c7.157-3.7 13.322-8.759 18.427-15.188 29.311-36.924 16.737-106.786 16.608-107.484-0.074-0.393-0.096-0.781-0.097-1.167l-83.396 11.428c-0.218 0.030-0.429 0.014-0.644 0.024 4.957 36.746 15.964 81.621 40.378 105.29 2.805 2.717 5.712 5.073 8.725 7.098zM326.798 923.527c11.863 11.495 25.494 16.73 41.692 16.002 5.169-0.232 10.052-0.883 14.648-1.943-1.074-0.936-2.138-1.897-3.181-2.909-45.679-44.29-48.404-149.339-48.49-169.851-2.97 0.968-5.973 1.853-9.006 2.648-12.662 3.317-25.526 4.999-38.229 4.999-0.55 0-1.098-0.016-1.648-0.022 1.079 31.598 7.448 115.441 44.213 151.076zM205.652 749.383v79.931l67.421-9.314c-2.694-19.905-3.62-37.395-3.923-48.33-22.363-2.372-43.959-9.994-63.507-22.295 0.003 0.003 0.006 0.005 0.009 0.008zM132.896 602.63c5.942 44.804 24.64 85.111 52.649 113.498 27.354 27.722 62.401 42.988 98.686 42.988 11.561 0 23.286-1.536 34.846-4.563 89.378-23.407 150.466-130.194 136.178-238.046-5.935-44.808-24.631-85.12-52.644-113.511-27.356-27.72-62.407-42.987-98.697-42.985-11.558 0-23.277 1.533-34.83 4.556-22.829 5.979-43.806 17.407-62.159 32.895-1.136 0.957-2.259 1.93-3.374 2.918-0.016 0.014-0.031 0.030-0.049 0.042-1.114 0.989-2.218 1.993-3.309 3.011-0.006 0.006-0.013 0.014-0.022 0.020-2.205 2.058-4.371 4.175-6.491 6.352-20.112 20.635-36.263 46.483-47.152 75.283-0.988 2.612-1.932 5.252-2.832 7.911-0.028 0.077-0.052 0.155-0.080 0.231-0.898 2.672-1.758 5.365-2.568 8.081-9.51 31.819-12.758 66.51-8.152 101.317zM102.824 336.459c0 65.153 16.875 99.105 35.355 133.964 12.942-30.145 31.458-56.876 54.116-77.719v-83.030l-89.471 17.814v8.971zM551.72-34.122l-448.313 89.251v258.661l448.313-89.257v-258.654zM565.279-30.7v260.644c0 0.532-0.086 1.043-0.203 1.541v13.388c0 83.631 26.82 126.045 49.321 160.074 14.651 22.158 29.427 37.28 38.953 45.867l0.261-430.747-88.332-50.767zM653.92 468.734c-6.978-5.309-28.567-23.176-50.273-55.825-23.691-35.634-51.928-80.729-51.928-168.034v-6.765l-345.549 68.798 0.653 73.674c17.759-13.38 37.566-23.352 58.877-28.934 12.658-3.312 25.513-4.993 38.213-4.993 0 0 0 0 0.003 0 39.888 0 78.319 16.679 108.201 46.96 30.041 30.444 50.064 73.465 56.378 121.136 13.946 105.246-40.499 209.704-123.901 245.149 0.148 0.565 0.248 1.15 0.239 1.765-0.006 0.473-0.187 19.481 2.472 44.97 0.129-0.027 0.248-0.075 0.383-0.094l306.232-42.31v-295.498zM262.402 459.734c1.197-0.936 2.651-1.417 4.113-1.417 0.972 0 1.951 0.212 2.862 0.644 3.451 1.637 84.566 40.522 101.357 83.553 7.029 15.045 7.074 35.793 0.097 51.724-6.218 14.2-17.316 24.147-32.094 28.766-4.374 1.366-8.841 2.061-13.283 2.061-21.235 0-38.184-15.592-47.68-27.861-8.123 19.35-27.001 43.561-53.505 42.919-10.242-0.262-19.157-4.935-25.774-13.514-11.96-15.502-14.181-40.752-10.206-57.636 14.076-61.719 71.668-107.327 74.112-109.239zM209.071 618.449c4.197 5.439 9.279 8.159 15.541 8.32 0.248 0.008 0.496 0.011 0.743 0.011 13.053 0 23.060-8.882 29.157-16.333 7.902-9.658 12.761-21.161 14.068-28.276 0.553-3.009 3.074-5.236 6.089-5.455 0.936-0.272 5.899-0.631 7.834 3.422 3.022 6.32 20.647 31.571 42.954 31.571 3.089 0 6.218-0.49 9.298-1.453 11.136-3.481 19.157-10.671 23.845-21.375 6.378-14.561 4.448-31.397-0.042-40.876-0.071-0.152-0.138-0.305-0.196-0.462-12.816-33.321-74.866-66.507-90.919-74.635-12.086 10.368-54.941 49.965-66.141 99.078-3.182 13.514-1.541 34.392 7.768 46.461z" />
<glyph unicode="&#xe905;" glyph-name="06" horiz-adv-x="757" d="M661.174 776.814c-0.003 0-0.006 0-0.013 0-0.135 0-154.671 21.315-154.671 21.315 0.126 0.347 0.245 0.697 0.316 1.074 0.641 3.426 15.317 84.396-19.418 128.212-13.357 16.847-32.14 25.928-55.831 26.994-12.449 0.562-23.936-1.866-34.345-7.231-8.436 3.289-17.814 5.197-28.121 5.661-19.801 0.884-37.152-5.759-51.601-19.765-24.191-23.456-36.33-63.947-42.413-99.898l-75.233 10.391c-3.656 0.507-7.025-2.048-7.531-5.701-0.093-0.683-0.019-97.908-0.019-97.908-5.648-4.412-11.084-9.237-16.256-14.48-30.041-30.442-50.064-73.46-56.382-121.125-5.387-40.692-0.547-81.263 12.227-117.775-21.368-36.762-42.416-76.072-42.416-150.152v-287.234c0-2.384 1.271-4.586 3.331-5.781 1.037-0.598 463.023-91.96 463.023-91.96 1.911-0.41 3.402-0.883 4.991-0.060 0.028 0.011 102.806 58.993 102.806 58.993 2.073 1.192 3.788 3.402 3.785 5.794v753.946c0.008 3.689-2.538 6.685-6.229 6.691zM397.98 932.151c7.157-3.7 13.322-8.759 18.427-15.188 29.311-36.924 16.737-106.786 16.608-107.484-0.074-0.393-0.096-0.781-0.097-1.167l-83.397 11.428c-0.218 0.030-0.429 0.014-0.644 0.024 4.957 36.746 15.964 81.621 40.379 105.29 2.805 2.719 5.712 5.075 8.725 7.098zM326.799 923.492c11.863 11.495 25.494 16.73 41.692 16.002 5.169-0.232 10.052-0.883 14.648-1.943-1.074-0.936-2.138-1.897-3.181-2.909-45.68-44.29-48.404-149.339-48.49-169.851-2.97 0.968-5.973 1.853-9.006 2.648-12.662 3.317-25.526 4.999-38.229 4.999-0.55 0-1.098-0.016-1.648-0.022 1.079 31.599 7.448 115.443 44.213 151.076zM205.652 749.349v79.932l67.421-9.314c-2.694-19.905-3.62-37.395-3.923-48.33-22.363-2.372-43.959-9.994-63.507-22.295 0.003 0.002 0.006 0.003 0.009 0.006zM132.897 602.597c5.942 44.804 24.64 85.111 52.649 113.498 27.354 27.722 62.401 42.988 98.686 42.988 11.561 0 23.286-1.536 34.846-4.563 89.378-23.407 150.468-130.194 136.178-238.046-5.935-44.808-24.631-85.12-52.644-113.511-27.357-27.72-62.407-42.987-98.698-42.985-11.558 0-23.277 1.533-34.83 4.556-22.829 5.979-43.806 17.407-62.159 32.895-1.136 0.957-2.259 1.93-3.374 2.918-0.016 0.014-0.031 0.030-0.049 0.042-1.114 0.989-2.218 1.993-3.309 3.011-0.006 0.006-0.013 0.014-0.022 0.020-2.205 2.058-4.371 4.175-6.491 6.352-20.112 20.635-36.263 46.483-47.152 75.283-0.988 2.612-1.932 5.252-2.832 7.911-0.028 0.077-0.052 0.155-0.080 0.231-0.898 2.672-1.758 5.365-2.568 8.081-9.509 31.819-12.758 66.51-8.15 101.317zM551.721-34.155l-448.314 89.251v258.659l448.314-89.257v-258.653zM653.922 468.701c-6.978-5.309-28.567-23.176-50.273-55.825-23.691-35.634-51.928-80.729-51.928-168.034v-6.765l-345.551 68.798 0.653 73.674c17.759-13.38 37.566-23.352 58.877-28.934 12.658-3.312 25.513-4.993 38.213-4.993 0 0 0 0 0.003 0 39.888 0 78.319 16.679 108.202 46.96 30.041 30.444 50.064 73.465 56.378 121.136 13.946 105.246-40.499 209.704-123.902 245.149 0.148 0.565 0.248 1.15 0.239 1.765-0.006 0.473-0.187 19.481 2.472 44.97 0.129-0.027 0.248-0.075 0.383-0.094l306.233-42.31v-295.498zM262.403 459.7c1.197-0.936 2.651-1.417 4.113-1.417 0.972 0 1.951 0.212 2.862 0.644 3.451 1.637 84.566 40.522 101.357 83.553 7.029 15.045 7.074 35.793 0.097 51.724-6.218 14.2-17.316 24.147-32.094 28.766-4.374 1.366-8.841 2.061-13.283 2.061-21.235 0-38.184-15.592-47.68-27.861-8.123 19.35-27.001 43.561-53.505 42.919-10.242-0.262-19.157-4.935-25.774-13.514-11.96-15.502-14.181-40.752-10.206-57.636 14.074-61.719 71.666-107.327 74.112-109.239z" />
<glyph unicode="&#xe906;" glyph-name="07" horiz-adv-x="757" d="M672.278 842.696h-279.088l-40.422 44.914c-1.267 1.407-3.071 2.21-4.963 2.21h-263.212c-3.691 0-6.678-2.989-6.678-6.678v-865.503c0-3.688 2.987-6.678 6.678-6.678h587.685c3.691 0 6.678 2.99 6.678 6.678v818.38c0 3.689-2.989 6.678-6.678 6.678zM394.113 623.845l271.486 137.069v-274.136l-271.486 137.067zM379.294 631.327l-273.808 138.241h547.619l-273.811-138.241zM91.271 761.78l273.206-137.936-273.206-137.936v275.872zM379.294 616.362l271.179-136.912h-542.359l271.18 136.912zM344.829 876.463l40.425-44.914c1.264-1.407 3.071-2.21 4.963-2.21h275.382v-46.417h-574.327v93.54h253.558zM91.271 24.316v441.779h574.329v-441.777h-574.329zM259.484 268.513h-132.407c-3.691 0-6.678-2.99-6.678-6.678 0-3.691 2.987-6.678 6.678-6.678h132.409c3.688 0 6.678 2.987 6.678 6.678-0.002 3.686-2.992 6.678-6.68 6.678zM259.484 231.069h-132.407c-3.691 0-6.678-2.99-6.678-6.678 0-3.691 2.987-6.678 6.678-6.678h132.409c3.688 0 6.678 2.987 6.678 6.678-0.002 3.688-2.992 6.678-6.68 6.678zM259.484 193.622h-132.407c-3.691 0-6.678-2.987-6.678-6.678 0-3.688 2.987-6.678 6.678-6.678h132.409c3.688 0 6.678 2.99 6.678 6.678-0.002 3.691-2.992 6.678-6.68 6.678zM259.484 156.179h-132.407c-3.691 0-6.678-2.99-6.678-6.678 0-3.691 2.987-6.678 6.678-6.678h132.409c3.688 0 6.678 2.987 6.678 6.678-0.002 3.688-2.992 6.678-6.68 6.678zM444.64 268.513h-132.409c-3.691 0-6.678-2.99-6.678-6.678 0-3.691 2.987-6.678 6.678-6.678h132.409c3.688 0 6.678 2.987 6.678 6.678 0 3.686-2.99 6.678-6.678 6.678zM444.64 231.069h-132.409c-3.691 0-6.678-2.99-6.678-6.678 0-3.691 2.987-6.678 6.678-6.678h132.409c3.688 0 6.678 2.987 6.678 6.678 0 3.688-2.99 6.678-6.678 6.678zM444.64 193.622h-132.409c-3.691 0-6.678-2.987-6.678-6.678 0-3.688 2.987-6.678 6.678-6.678h132.409c3.688 0 6.678 2.99 6.678 6.678 0 3.691-2.99 6.678-6.678 6.678zM444.64 156.179h-132.409c-3.691 0-6.678-2.99-6.678-6.678 0-3.691 2.987-6.678 6.678-6.678h132.409c3.688 0 6.678 2.987 6.678 6.678 0 3.688-2.99 6.678-6.678 6.678zM629.797 268.513h-132.409c-3.691 0-6.678-2.99-6.678-6.678 0-3.691 2.987-6.678 6.678-6.678h132.409c3.688 0 6.678 2.987 6.678 6.678 0 3.686-2.99 6.678-6.678 6.678zM629.797 231.069h-132.409c-3.691 0-6.678-2.99-6.678-6.678 0-3.691 2.987-6.678 6.678-6.678h132.409c3.688 0 6.678 2.987 6.678 6.678 0 3.688-2.99 6.678-6.678 6.678zM629.797 193.622h-132.409c-3.691 0-6.678-2.987-6.678-6.678 0-3.688 2.987-6.678 6.678-6.678h132.409c3.688 0 6.678 2.99 6.678 6.678 0 3.691-2.99 6.678-6.678 6.678zM629.797 156.179h-132.409c-3.691 0-6.678-2.99-6.678-6.678 0-3.691 2.987-6.678 6.678-6.678h132.409c3.688 0 6.678 2.987 6.678 6.678 0 3.688-2.99 6.678-6.678 6.678zM118.069 806.070c1.304-1.304 3.016-1.955 4.724-1.955s3.418 0.652 4.721 1.955l14.998 14.996 14.995-14.996c1.304-1.304 3.016-1.955 4.724-1.955s3.418 0.652 4.721 1.955c2.607 2.607 2.607 6.837 0 9.446l-14.995 14.996 14.995 14.998c2.607 2.609 2.607 6.837 0 9.446-2.607 2.607-6.839 2.607-9.446 0l-14.995-14.996-14.998 14.996c-2.607 2.607-6.839 2.607-9.446 0-2.607-2.609-2.607-6.837 0-9.446l14.998-14.998-14.998-14.996c-2.607-2.61-2.607-6.839 0-9.446zM411.302 104.29l-32.867-37.463-32.87 37.463c-2.433 2.774-6.65 3.049-9.424 0.617s-3.049-6.653-0.617-9.427l37.888-43.183c1.271-1.445 3.099-2.273 5.021-2.273 1.921 0 3.752 0.828 5.018 2.273l37.888 43.183c2.433 2.774 2.156 6.994-0.614 9.427-2.774 2.433-6.992 2.156-9.424-0.617zM193.278 294.719c39.223 0 71.132 31.519 71.132 70.264 0 38.741-31.909 70.261-71.132 70.261s-71.132-31.519-71.132-70.261c0-38.743 31.909-70.264 71.132-70.264zM193.278 421.888c31.857 0 57.776-25.526 57.776-56.904s-25.919-56.907-57.776-56.907-57.776 25.529-57.776 56.907 25.919 56.904 57.776 56.904zM378.435 294.719c39.223 0 71.132 31.519 71.132 70.264 0 38.741-31.909 70.261-71.132 70.261s-71.132-31.519-71.132-70.261c0-38.743 31.909-70.264 71.132-70.264zM378.435 421.888c31.857 0 57.776-25.526 57.776-56.904s-25.919-56.907-57.776-56.907-57.776 25.529-57.776 56.907 25.919 56.904 57.776 56.904zM563.592 294.719c39.223 0 71.132 31.519 71.132 70.264 0 38.741-31.909 70.261-71.132 70.261s-71.132-31.519-71.132-70.261c-0.002-38.743 31.909-70.264 71.132-70.264zM563.592 421.888c31.857 0 57.776-25.526 57.776-56.904s-25.919-56.907-57.776-56.907-57.776 25.529-57.776 56.907 25.917 56.904 57.776 56.904z" />
<glyph unicode="&#xe907;" glyph-name="08" horiz-adv-x="757" d="M193.278 308.041c31.857 0 57.776 25.529 57.776 56.907s-25.919 56.905-57.776 56.905-57.776-25.527-57.776-56.905 25.919-56.907 57.776-56.907zM312.232 180.233h132.409c3.688 0 6.678 2.989 6.678 6.678s-2.99 6.678-6.678 6.678h-132.409c-3.691 0-6.678-2.989-6.678-6.678s2.989-6.678 6.678-6.678zM378.435 308.041c31.857 0 57.776 25.529 57.776 56.907s-25.919 56.905-57.776 56.905-57.776-25.527-57.776-56.905 25.919-56.907 57.776-56.907zM312.232 217.678h132.409c3.688 0 6.678 2.989 6.678 6.678s-2.99 6.678-6.678 6.678h-132.409c-3.691 0-6.678-2.989-6.678-6.678s2.989-6.678 6.678-6.678zM312.232 255.12h132.409c3.688 0 6.678 2.989 6.678 6.678s-2.99 6.678-6.678 6.678h-132.409c-3.691 0-6.678-2.989-6.678-6.678s2.989-6.678 6.678-6.678zM497.388 255.12h132.409c3.688 0 6.678 2.989 6.678 6.678s-2.99 6.678-6.678 6.678h-132.409c-3.691 0-6.678-2.989-6.678-6.678s2.989-6.678 6.678-6.678zM497.388 142.787h132.409c3.688 0 6.678 2.989 6.678 6.678s-2.99 6.678-6.678 6.678h-132.409c-3.691 0-6.678-2.989-6.678-6.678s2.989-6.678 6.678-6.678zM411.302 104.257l-32.867-37.463-32.87 37.463c-2.433 2.774-6.65 3.047-9.424 0.616s-3.049-6.652-0.617-9.425l37.888-43.183c1.271-1.445 3.099-2.273 5.021-2.273 1.921 0 3.752 0.828 5.018 2.273l37.888 43.183c2.433 2.774 2.156 6.992-0.614 9.425-2.774 2.431-6.992 2.156-9.424-0.616zM563.592 308.041c31.857 0 57.776 25.529 57.776 56.907s-25.919 56.905-57.776 56.905-57.776-25.527-57.776-56.905 25.917-56.907 57.776-56.907zM497.388 217.678h132.409c3.688 0 6.678 2.989 6.678 6.678s-2.99 6.678-6.678 6.678h-132.409c-3.691 0-6.678-2.989-6.678-6.678s2.989-6.678 6.678-6.678zM497.388 180.233h132.409c3.688 0 6.678 2.989 6.678 6.678s-2.99 6.678-6.678 6.678h-132.409c-3.691 0-6.678-2.989-6.678-6.678s2.989-6.678 6.678-6.678zM312.232 142.787h132.409c3.688 0 6.678 2.989 6.678 6.678s-2.99 6.678-6.678 6.678h-132.409c-3.691 0-6.678-2.989-6.678-6.678s2.989-6.678 6.678-6.678zM166.952 854.92c-2.607 2.607-6.839 2.607-9.446 0l-14.995-14.996-14.998 14.996c-2.607 2.607-6.839 2.607-9.446 0-2.607-2.609-2.607-6.837 0-9.446l14.998-14.998-14.998-14.996c-2.607-2.609-2.607-6.839 0-9.446 1.304-1.304 3.016-1.955 4.724-1.955s3.418 0.652 4.721 1.955l14.998 14.996 14.995-14.996c1.304-1.304 3.016-1.955 4.724-1.955s3.418 0.652 4.721 1.955c2.607 2.607 2.607 6.837 0 9.446l-14.995 14.996 14.995 14.998c2.609 2.61 2.609 6.837 0 9.446zM672.278 842.661h-279.088l-40.422 44.914c-1.267 1.407-3.071 2.21-4.963 2.21h-263.212c-3.691 0-6.678-2.989-6.678-6.678v-865.503c0-3.689 2.987-6.678 6.678-6.678h587.685c3.691 0 6.678 2.989 6.678 6.678v818.381c0 3.688-2.989 6.677-6.678 6.677zM665.6 24.283h-574.329v441.777h574.329v-441.777zM205.49 593.596c2.774-2.433 3.049-6.65 0.617-9.427-2.433-2.771-6.653-3.045-9.427-0.614l-43.183 37.89c-1.445 1.267-2.273 3.099-2.273 5.018 0 1.924 0.828 3.752 2.273 5.021l43.183 37.888c2.774 2.433 6.994 2.156 9.427-0.617s2.156-6.991-0.617-9.424l-37.463-32.87 37.463-32.865zM305.085 626.464c0 7.365 6.083 13.357 13.559 13.357 7.479 0 13.562-5.99 13.562-13.357 0-7.363-6.083-13.357-13.562-13.357-7.476 0-13.559 5.994-13.559 13.357zM364.251 626.464c0 7.365 6.083 13.357 13.562 13.357 7.476 0 13.559-5.99 13.559-13.357 0-7.363-6.083-13.357-13.559-13.357-7.479 0-13.562 5.994-13.562 13.357zM423.415 626.464c0 7.365 6.083 13.357 13.562 13.357 7.476 0 13.559-5.99 13.559-13.357 0-7.363-6.083-13.357-13.559-13.357-7.478 0-13.562 5.994-13.562 13.357zM551.379 659.333c-2.774 2.433-3.049 6.65-0.617 9.427 2.433 2.771 6.653 3.045 9.427 0.614l43.183-37.888c1.445-1.267 2.273-3.099 2.273-5.018 0-1.924-0.828-3.752-2.273-5.021l-43.183-37.888c-2.774-2.433-6.994-2.156-9.427 0.617s-2.156 6.991 0.617 9.424l37.463 32.87-37.463 32.864zM665.6 782.89h-574.329v93.54h253.559l40.425-44.914c1.264-1.407 3.071-2.21 4.963-2.21h275.382v-46.417zM127.076 142.787h132.409c3.688 0 6.678 2.989 6.678 6.678s-2.99 6.678-6.678 6.678h-132.409c-3.691 0-6.678-2.989-6.678-6.678s2.987-6.678 6.678-6.678zM127.076 255.12h132.409c3.688 0 6.678 2.989 6.678 6.678s-2.99 6.678-6.678 6.678h-132.409c-3.691 0-6.678-2.989-6.678-6.678s2.987-6.678 6.678-6.678zM127.076 217.678h132.409c3.688 0 6.678 2.989 6.678 6.678s-2.99 6.678-6.678 6.678h-132.409c-3.691 0-6.678-2.989-6.678-6.678s2.987-6.678 6.678-6.678zM127.076 180.233h132.409c3.688 0 6.678 2.989 6.678 6.678s-2.99 6.678-6.678 6.678h-132.409c-3.691 0-6.678-2.989-6.678-6.678s2.987-6.678 6.678-6.678z" />
<glyph unicode="&#xe908;" glyph-name="09" d="M512.001-63.942c282.315 0 511.996 229.653 511.996 511.941 0 282.284-229.682 511.941-511.996 511.941-282.317 0.002-512.001-229.657-512.001-511.941 0.005-282.284 229.686-511.941 512.001-511.941zM512.001 939.462c271.027 0 491.516-220.472 491.516-491.461 0-270.991-220.491-491.458-491.516-491.458-271.022 0-491.521 220.467-491.521 491.458 0.005 270.989 220.499 491.461 491.521 491.461zM323.75 625.377l178.012 156.021v-689.375c0-5.655 4.583-10.24 10.24-10.24s10.238 4.585 10.238 10.24v689.379l178.016-156.026c4.253-3.735 10.719-3.299 14.45 0.954 3.726 4.253 3.302 10.719-0.951 14.45l-194.98 170.893c-0.197 0.173-0.419 0.301-0.626 0.453-0.094 0.070-0.188 0.144-0.287 0.21-0.489 0.344-0.992 0.636-1.52 0.877-0.113 0.055-0.226 0.113-0.34 0.164-0.554 0.231-1.115 0.414-1.688 0.547-0.099 0.022-0.188 0.055-0.287 0.075-0.657 0.132-1.327 0.212-2.001 0.212-0.010 0-0.019 0-0.024 0-0.010 0-0.019 0-0.029 0-0.667 0-1.344-0.079-1.999-0.212-0.099-0.019-0.188-0.053-0.287-0.075-0.573-0.132-1.134-0.315-1.683-0.547-0.118-0.051-0.231-0.108-0.344-0.164-0.53-0.246-1.033-0.537-1.522-0.877-0.099-0.065-0.193-0.14-0.284-0.21-0.207-0.152-0.431-0.279-0.629-0.453l-194.983-170.895c-4.253-3.73-4.672-10.197-0.951-14.45 3.74-4.251 10.211-4.682 14.459-0.951z" />
<glyph unicode="&#xe909;" glyph-name="010" d="M511.999 959.942c-282.315 0-511.999-229.66-511.999-511.946s229.682-511.939 511.999-511.939c282.317 0 511.999 229.653 511.999 511.939 0 282.284-229.682 511.946-511.999 511.946zM511.999-43.464c-271.022 0-491.519 220.47-491.519 491.461s220.496 491.461 491.519 491.461c271.025 0 491.519-220.47 491.519-491.458 0-270.993-220.494-491.463-491.519-491.463zM700.253 270.621l-178.012-156.024v689.375c0 5.659-4.585 10.24-10.24 10.24s-10.24-4.581-10.24-10.24v-689.377l-178.012 156.026c-4.258 3.733-10.722 3.302-14.455-0.954-3.726-4.253-3.302-10.719 0.954-14.45l194.978-170.897c0.197-0.171 0.419-0.299 0.626-0.453 0.094-0.072 0.188-0.144 0.287-0.21 0.486-0.344 0.992-0.638 1.52-0.879 0.113-0.053 0.226-0.113 0.347-0.161 0.551-0.234 1.11-0.414 1.681-0.547 0.099-0.022 0.188-0.055 0.287-0.075 0.655-0.132 1.332-0.214 1.999-0.214 0.010 0 0.019 0.002 0.019 0.002 0.017 0 0.026-0.002 0.026-0.002 0.679 0 1.349 0.082 2.006 0.214 0.099 0.019 0.188 0.053 0.287 0.075 0.573 0.132 1.134 0.313 1.688 0.547 0.113 0.051 0.226 0.108 0.34 0.161 0.527 0.246 1.031 0.539 1.52 0.879 0.099 0.065 0.193 0.137 0.287 0.21 0.207 0.152 0.429 0.279 0.626 0.453l194.983 170.897c4.253 3.73 4.679 10.197 0.951 14.45-3.728 4.255-10.202 4.684-14.452 0.954z" />
<glyph unicode="&#xe90a;" glyph-name="011" d="M0.060 447.996c0-282.317 229.65-511.999 511.941-511.999 282.281 0 511.941 229.682 511.941 511.999 0 282.322-229.657 512.004-511.941 512.004-282.286 0-511.941-229.682-511.941-512.004zM1003.467 447.996c0-271.020-220.472-491.519-491.463-491.519-270.993 0-491.461 220.501-491.461 491.519 0 271.030 220.467 491.526 491.461 491.526 270.991 0 491.463-220.496 491.463-491.526zM689.382 636.248l156.017-178.014h-689.372c-5.655 0-10.24-4.578-10.24-10.24 0-5.655 4.585-10.24 10.24-10.24h689.377l-156.026-178.012c-3.735-4.253-3.302-10.715 0.954-14.45 4.253-3.73 10.719-3.297 14.45 0.954l170.895 194.978c0.173 0.197 0.301 0.419 0.453 0.626 0.070 0.099 0.147 0.193 0.207 0.291 0.349 0.484 0.641 0.992 0.879 1.52 0.055 0.113 0.113 0.222 0.164 0.34 0.231 0.551 0.414 1.115 0.547 1.688 0.024 0.094 0.055 0.188 0.075 0.282 0.132 0.662 0.212 1.332 0.212 2.004 0 0.007 0 0.017 0 0.026s0 0.019 0 0.029c0 0.667-0.079 1.337-0.212 1.999-0.019 0.094-0.051 0.188-0.075 0.282-0.132 0.571-0.315 1.139-0.547 1.688-0.051 0.118-0.108 0.226-0.164 0.344-0.246 0.523-0.537 1.031-0.879 1.52-0.060 0.094-0.137 0.193-0.207 0.287-0.149 0.207-0.277 0.429-0.453 0.626l-170.895 194.978c-3.73 4.258-10.197 4.679-14.45 0.954-4.251-3.733-4.684-10.202-0.949-14.459z" />
<glyph unicode="&#xe90b;" glyph-name="012" d="M1023.942 448.001c0 282.317-229.655 511.999-511.941 511.999-282.284 0-511.941-229.682-511.941-511.999 0-282.322 229.657-512.004 511.941-512.004 282.286 0.005 511.941 229.686 511.941 512.004zM20.54 448.001c0 271.025 220.472 491.521 491.461 491.521 270.993 0 491.461-220.496 491.461-491.521s-220.467-491.523-491.461-491.523c-270.991 0.005-491.461 220.499-491.461 491.523zM334.625 259.747l-156.021 178.012h689.375c5.655 0 10.24 4.581 10.24 10.24 0 5.657-4.585 10.24-10.24 10.24h-689.379l156.026 178.014c3.735 4.253 3.302 10.719-0.951 14.45-4.255 3.73-10.719 3.302-14.45-0.951l-170.895-194.978c-0.173-0.197-0.301-0.419-0.455-0.626-0.070-0.099-0.142-0.193-0.207-0.291-0.344-0.484-0.636-0.992-0.879-1.52-0.053-0.113-0.113-0.222-0.164-0.34-0.231-0.551-0.414-1.117-0.547-1.688-0.019-0.094-0.055-0.188-0.075-0.282-0.132-0.662-0.212-1.332-0.212-2.004 0-0.005 0-0.014 0-0.024s0-0.019 0-0.031c0-0.665 0.079-1.334 0.212-1.999 0.019-0.094 0.055-0.188 0.075-0.282 0.132-0.573 0.315-1.139 0.547-1.688 0.051-0.118 0.108-0.226 0.164-0.344 0.248-0.523 0.537-1.031 0.879-1.52 0.065-0.094 0.137-0.193 0.207-0.287 0.154-0.207 0.282-0.429 0.455-0.626l170.895-194.978c3.73-4.258 10.194-4.679 14.45-0.954 4.253 3.738 4.679 10.206 0.951 14.457z" />
<glyph unicode="&#xe90c;" glyph-name="013" d="M511.999 959.942c-282.32 0-512.001-229.657-512.001-511.946 0-282.286 229.682-511.939 512.001-511.939 282.322 0 512.006 229.653 512.006 511.939-0.002 282.288-229.684 511.946-512.006 511.946zM511.999-43.464c-271.022 0-491.519 220.47-491.519 491.461s220.499 491.461 491.519 491.461c271.027 0 491.526-220.467 491.526-491.458-0.005-270.993-220.501-491.463-491.526-491.463zM200.271 490.984c9.159 69.277 40.185 132.081 89.728 181.624 59.629 59.629 138.91 92.469 223.239 92.469 0 0 0.014 0 0.019 0 77.6-0.005 150.913-27.835 208.587-78.732l-123.666-19.353c-5.587-0.874-9.407-6.115-8.537-11.697 0.795-5.055 5.151-8.66 10.108-8.66 0.523 0 1.055 0.041 1.594 0.123l142.475 22.303c0.171-0.010 0.34-0.051 0.508-0.051 0.547 0 1.096 0.048 1.647 0.137 4.92 0.792 8.443 4.971 8.593 9.778 0.039 0.71 0.014 1.435-0.099 2.165-0.031 0.178-0.099 0.342-0.14 0.515l-22.532 139.354c-0.903 5.582-6.16 9.378-11.74 8.477-5.582-0.901-9.383-6.16-8.48-11.743l17.939-110.921c-60.489 50.988-136.235 78.785-216.267 78.79-0.010 0-0.010 0-0.010 0-89.808 0-174.243-34.971-237.735-98.468-52.754-52.751-85.796-119.642-95.552-193.42-9.441-71.428 4.566-145.249 39.45-207.855 1.869-3.362 5.361-5.26 8.952-5.26 1.688 0 3.401 0.419 4.973 1.296 4.939 2.755 6.712 8.985 3.964 13.93-32.741 58.779-45.892 128.107-37.020 195.2zM790.66 614.142c-4.939-2.753-6.712-8.985-3.964-13.925 32.755-58.784 45.907-128.109 37.037-195.204-9.159-69.279-40.185-132.083-89.728-181.624-59.629-59.632-138.91-92.469-223.239-92.469 0 0-0.014 0-0.019 0-77.6 0.005-150.913 27.833-208.587 78.73l123.666 19.353c5.587 0.874 9.407 6.115 8.533 11.699-0.874 5.587-6.134 9.395-11.697 8.535l-142.41-22.289c-0.73 0.043-1.469 0.022-2.225-0.099-4.92-0.795-8.439-4.971-8.586-9.778-0.046-0.71-0.019-1.435 0.099-2.165 0.031-0.197 0.099-0.378 0.144-0.571l22.527-139.301c0.814-5.031 5.161-8.607 10.093-8.607 0.547 0 1.096 0.048 1.652 0.135 5.582 0.903 9.375 6.163 8.472 11.743l-17.939 110.941c62.305-52.421 139.291-78.655 216.294-78.653 86.092 0.005 172.188 32.772 237.725 98.307 52.749 52.756 85.796 119.642 95.547 193.42 9.445 71.43-4.566 145.249-39.445 207.855-2.774 4.944-9.007 6.712-13.949 3.966z" />
<glyph unicode="&#xe90d;" glyph-name="014" d="M511.999 959.94c-282.317 0-511.999-229.655-511.999-511.943 0-282.286 229.682-511.939 512.001-511.939 282.322 0 512.004 229.653 512.004 511.939-0.002 282.288-229.689 511.943-512.006 511.943zM511.999-43.467c-271.022 0-491.521 220.472-491.521 491.463s220.499 491.461 491.519 491.461c271.027 0 491.526-220.47 491.526-491.458 0-270.993-220.499-491.466-491.523-491.466zM867.971 458.232h-0.973c-0.034 0-0.060 0.010-0.089 0.010h-344.663v345.732c0 5.657-4.581 10.24-10.24 10.24-5.657 0-10.24-4.583-10.24-10.24v-1.024c0-0.017-0.005-0.031-0.005-0.048v-344.661h-345.735c-5.657 0-10.24-4.581-10.24-10.24 0-5.657 4.583-10.242 10.24-10.242h0.975c0.036 0 0.060-0.010 0.094-0.010h344.658v-345.728c0-5.659 4.585-10.24 10.24-10.24 5.659 0 10.24 4.581 10.24 10.24v1.021c0 0.019 0.005 0.034 0.005 0.051v344.661h345.732c5.659 0 10.24 4.581 10.24 10.242 0 5.657-4.581 10.235-10.24 10.235z" />
<glyph unicode="&#xe90e;" glyph-name="camera" d="M304 352c0-114.876 93.124-208 208-208s208 93.124 208 208-93.124 208-208 208-208-93.124-208-208zM960 704h-224c-16 64-32 128-96 128h-256c-64 0-80-64-96-128h-224c-35.2 0-64-28.8-64-64v-576c0-35.2 28.8-64 64-64h896c35.2 0 64 28.8 64 64v576c0 35.2-28.8 64-64 64zM512 68c-156.85 0-284 127.148-284 284 0 156.85 127.15 284 284 284 156.852 0 284-127.15 284-284 0-156.852-127.146-284-284-284zM960 512h-128v64h128v-64z" />
<glyph unicode="&#xe90f;" glyph-name="location2" d="M512 960c-176.732 0-320-143.268-320-320 0-320 320-704 320-704s320 384 320 704c0 176.732-143.27 320-320 320zM512 444c-108.248 0-196 87.752-196 196s87.752 196 196 196 196-87.752 196-196-87.752-196-196-196zM388 640c0 68.483 55.517 124 124 124s124-55.517 124-124c0-68.483-55.517-124-124-124s-124 55.517-124 124z" />
<glyph unicode="&#xe910;" glyph-name="map" d="M0 768l320 128v-768l-320-128zM384 928l320-192v-736l-320 160zM768 736l256 192v-768l-256-192z" />
<glyph unicode="&#xe911;" glyph-name="cog" d="M933.79 349.75c-53.726 93.054-21.416 212.304 72.152 266.488l-100.626 174.292c-28.75-16.854-62.176-26.518-97.846-26.518-107.536 0-194.708 87.746-194.708 195.99h-201.258c0.266-33.41-8.074-67.282-25.958-98.252-53.724-93.056-173.156-124.702-266.862-70.758l-100.624-174.292c28.97-16.472 54.050-40.588 71.886-71.478 53.638-92.908 21.512-211.92-71.708-266.224l100.626-174.292c28.65 16.696 61.916 26.254 97.4 26.254 107.196 0 194.144-87.192 194.7-194.958h201.254c-0.086 33.074 8.272 66.57 25.966 97.218 53.636 92.906 172.776 124.594 266.414 71.012l100.626 174.29c-28.78 16.466-53.692 40.498-71.434 71.228zM512 240.668c-114.508 0-207.336 92.824-207.336 207.334 0 114.508 92.826 207.334 207.336 207.334 114.508 0 207.332-92.826 207.332-207.334-0.002-114.51-92.824-207.334-207.332-207.334z" />
<glyph unicode="&#xe912;" glyph-name="trophy" d="M832 768v128h-640v-128h-192v-128c0-106.038 85.958-192 192-192 20.076 0 39.43 3.086 57.62 8.802 46.174-66.008 116.608-113.796 198.38-130.396v-198.406h-64c-70.694 0-128-57.306-128-128h512c0 70.694-57.306 128-128 128h-64v198.406c81.772 16.6 152.206 64.386 198.38 130.396 18.19-5.716 37.544-8.802 57.62-8.802 106.042 0 192 85.962 192 192v128h-192zM192 524c-63.962 0-116 52.038-116 116v64h116v-64c0-40.186 7.43-78.632 20.954-114.068-6.802-1.246-13.798-1.932-20.954-1.932zM948 640c0-63.962-52.038-116-116-116-7.156 0-14.152 0.686-20.954 1.932 13.524 35.436 20.954 73.882 20.954 114.068v64h116v-64z" />
<glyph unicode="&#xe913;" glyph-name="mug" d="M960 640h-192v96c0 88.366-171.922 160-384 160s-384-71.634-384-160v-640c0-88.366 171.922-160 384-160s384 71.634 384 160v96h192c35.346 0 64 28.654 64 64v320c0 35.346-28.654 64-64 64zM176.056 701.602c-36.994 12.19-59.408 25.246-71.41 34.398 12.004 9.152 34.416 22.208 71.41 34.398 57.942 19.090 131.79 29.602 207.944 29.602s150.004-10.512 207.944-29.602c36.994-12.188 59.408-25.246 71.41-34.398-12.002-9.152-34.416-22.208-71.41-34.398-57.94-19.090-131.79-29.602-207.944-29.602s-150.002 10.512-207.944 29.602zM896 320h-128v192h128v-192z" />
<glyph unicode="&#xe914;" glyph-name="briefcase" d="M960 704h-256v64c0 35.2-28.8 64-64 64h-256c-35.204 0-64-28.8-64-64v-64h-256c-35.2 0-64-28.8-64-64v-576c0-35.202 28.796-64 64-64h896c35.2 0 64 28.798 64 64v576c0 35.2-28.8 64-64 64zM384 767.884c0.034 0.040 0.074 0.082 0.114 0.116h255.772c0.042-0.034 0.082-0.076 0.118-0.116v-63.884h-256.004v63.884zM960 448h-128v-96c0-17.602-14.4-32-32-32h-64c-17.604 0-32 14.398-32 32v96h-384v-96c0-17.602-14.4-32-32-32h-64c-17.602 0-32 14.398-32 32v96h-128v64h896v-64z" />
<glyph unicode="&#xe915;" glyph-name="eye" d="M512 768c-223.318 0-416.882-130.042-512-320 95.118-189.958 288.682-320 512-320 223.312 0 416.876 130.042 512 320-95.116 189.958-288.688 320-512 320zM764.45 598.296c60.162-38.374 111.142-89.774 149.434-150.296-38.292-60.522-89.274-111.922-149.436-150.296-75.594-48.218-162.89-73.704-252.448-73.704-89.56 0-176.858 25.486-252.452 73.704-60.158 38.372-111.138 89.772-149.432 150.296 38.292 60.524 89.274 111.924 149.434 150.296 3.918 2.5 7.876 4.922 11.86 7.3-9.96-27.328-15.41-56.822-15.41-87.596 0-141.382 114.616-256 256-256 141.382 0 256 114.618 256 256 0 30.774-5.452 60.268-15.408 87.598 3.978-2.378 7.938-4.802 11.858-7.302v0zM512 544c0-53.020-42.98-96-96-96s-96 42.98-96 96 42.98 96 96 96 96-42.982 96-96z" />
<glyph unicode="&#xe916;" glyph-name="heart" d="M755.188 896c-107.63 0-200.258-87.554-243.164-179-42.938 91.444-135.578 179-243.216 179-148.382 0-268.808-120.44-268.808-268.832 0-301.846 304.5-380.994 512.022-679.418 196.154 296.576 511.978 387.206 511.978 679.418 0 148.392-120.43 268.832-268.812 268.832z" />
<glyph unicode="&#xe917;" glyph-name="checkbox-checked" d="M896 960h-768c-70.4 0-128-57.6-128-128v-768c0-70.4 57.6-128 128-128h768c70.4 0 128 57.6 128 128v768c0 70.4-57.6 128-128 128zM448 165.49l-237.254 237.256 90.51 90.508 146.744-146.744 306.746 306.746 90.508-90.51-397.254-397.256z" />
<glyph unicode="&#xe918;" glyph-name="checkbox-unchecked" d="M896 960h-768c-70.4 0-128-57.6-128-128v-768c0-70.4 57.6-128 128-128h768c70.4 0 128 57.6 128 128v768c0 70.4-57.6 128-128 128zM896 64h-768v768h768v-768z" />
<glyph unicode="&#xe919;" glyph-name="mail" d="M853.31 960h-682.62c-93.88 0-170.69-76.784-170.69-170.658v-682.656c0-93.876 76.81-170.686 170.69-170.686h682.622c93.938 0 170.688 76.81 170.688 170.686v682.656c0 93.874-76.75 170.658-170.69 170.658zM256 704h512c9.138 0 18.004-1.962 26.144-5.662l-282.144-329.168-282.144 329.17c8.14 3.696 17.006 5.66 26.144 5.66zM192 256v384c0 1.34 0.056 2.672 0.14 4l187.664-218.94-185.598-185.6c-1.444 5.338-2.206 10.886-2.206 16.54zM768 192h-512c-5.654 0-11.202 0.762-16.54 2.206l182.118 182.118 90.422-105.496 90.424 105.494 182.116-182.118c-5.34-1.442-10.886-2.204-16.54-2.204zM832 256c0-5.654-0.762-11.2-2.206-16.54l-185.598 185.598 187.664 218.942c0.084-1.328 0.14-2.66 0.14-4v-384z" />
<glyph unicode="&#xe91a;" glyph-name="google-plus2" d="M0.806 90.336c-0.244 2.532-0.452 5.070-0.584 7.63 0.13-2.56 0.34-5.098 0.584-7.63zM235.908 394.852c92.010-2.738 153.734 92.698 137.862 213.198-15.894 120.48-103.396 217.168-195.408 219.922-92.026 2.73-153.74-89.482-137.852-210 15.882-120.468 103.352-220.374 195.398-223.12zM1024 704v85.31c0 93.88-76.782 170.69-170.658 170.69h-682.656c-92.276 0-168.012-74.232-170.564-165.926 58.362 51.386 139.324 94.316 222.874 94.316 89.304 0 357.244 0 357.244 0l-79.948-67.618h-113.268c75.13-28.804 115.156-116.124 115.156-205.722 0-75.248-41.81-139.954-100.888-185.968-57.644-44.902-68.572-63.708-68.572-101.878 0-32.578 61.746-88 94.032-110.788 94.382-66.538 124.916-128.312 124.916-231.456 0-16.428-2.042-32.83-6.066-48.96h307.742c93.874 0 170.656 76.75 170.656 170.69v533.308h-192v-191.998h-64v192h-191.998v64h191.998v192h64v-192h192zM185.886 194.064c21.614 0 41.422 0.59 61.936 0.59-27.146 26.334-48.626 58.6-48.626 98.38 0 23.608 7.564 46.336 18.134 66.52-10.782-0.77-21.79-0.994-33.126-0.994-74.356 0-137.506 24.076-184.204 63.854v-67.242l0.006-201.73c53.44 25.374 116.888 40.622 185.88 40.622zM3.42 72.742c-1.112 5.458-1.966 11.006-2.542 16.634 0.574-5.628 1.43-11.176 2.542-16.634zM455.45 7.154c-15.058 58.806-68.454 87.964-142.888 139.568-27.072 8.732-56.894 13.874-88.894 14.208-89.618 0.964-173.108-34.942-220.216-88.372 15.92-77.706 85.034-136.558 167.234-136.558h286.444c1.816 11.128 2.696 22.632 2.696 34.432 0 12.534-1.534 24.792-4.376 36.722z" />
<glyph unicode="&#xe91b;" glyph-name="facebook2" d="M853.35 960h-682.702c-94.25 0-170.648-76.42-170.648-170.686v-682.63c0-94.266 76.398-170.684 170.648-170.684h341.352v448h-128v128h128v96c0 88.366 71.634 160 160 160h160v-128h-160c-17.674 0-32-14.328-32-32v-96h176l-32-128h-144v-448h213.35c94.25 0 170.65 76.418 170.65 170.684v682.63c0 94.266-76.4 170.686-170.65 170.686z" />
<glyph unicode="&#xe91c;" glyph-name="instagram" d="M854 960h-684c-93.5 0-170-76.5-170-170v-684c0-93.5 76.5-170 170-170h684c93.5 0 170 76.5 170 170v684c0 93.5-76.5 170-170 170zM327.8 512h368.4c6.988-20.058 10.8-41.59 10.8-64 0-107.524-87.476-195-195-195s-195 87.476-195 195c0 22.41 3.812 43.942 10.8 64zM896 511.95v-383.95c0-35.2-28.8-64-64-64h-640c-35.2 0-64 28.8-64 64v384h100.108c-4.642-20.602-7.108-42.016-7.108-64 0-160.458 130.542-291 291-291s291 130.542 291 291c0 21.984-2.464 43.398-7.108 64l100.108-0.050zM896 736c0-17.6-14.4-32-32-32h-64c-17.6 0-32 14.4-32 32v64c0 17.6 14.4 32 32 32h64c17.6 0 32-14.4 32-32v-64z" />
<glyph unicode="&#xe91d;" glyph-name="twitter2" d="M853.342 960h-682.656c-93.874 0-170.686-76.81-170.686-170.69v-682.624c0-93.936 76.812-170.686 170.686-170.686h682.656c93.876 0 170.658 76.75 170.658 170.69v682.62c0 93.88-76.782 170.69-170.658 170.69zM766.478 578.52c0.252-5.632 0.38-11.296 0.38-16.988 0-173.51-132.070-373.588-373.584-373.588-74.15 0-143.168 21.738-201.276 58.996 10.272-1.218 20.724-1.84 31.322-1.84 61.518 0 118.134 20.992 163.072 56.21-57.458 1.054-105.948 39.020-122.658 91.184 8.018-1.532 16.244-2.36 24.704-2.36 11.976 0 23.578 1.61 34.592 4.61-60.064 12.066-105.326 65.132-105.326 128.75 0 0.554 0 1.104 0.012 1.652 17.7-9.834 37.948-15.742 59.47-16.424-35.232 23.546-58.414 63.736-58.414 109.292 0 24.064 6.476 46.62 17.78 66.010 64.76-79.44 161.51-131.712 270.634-137.19-2.238 9.612-3.4 19.632-3.4 29.924 0 72.512 58.792 131.298 131.304 131.298 37.766 0 71.892-15.944 95.842-41.462 29.908 5.886 58.008 16.814 83.38 31.862-9.804-30.662-30.624-56.394-57.732-72.644 26.56 3.174 51.866 10.232 75.412 20.674-17.594-26.328-39.854-49.454-65.514-67.966z" />
<glyph unicode="&#xe91e;" glyph-name="youtube" d="M832 832h-640c-105.6 0-192-86.4-192-192v-384c0-105.6 86.4-192 192-192h640c105.6 0 192 86.4 192 192v384c0 105.6-86.4 192-192 192zM384 192v512l320-256-320-256z" />
<glyph unicode="&#xe91f;" glyph-name="vimeo2" d="M853.31 960h-682.62c-93.878 0-170.69-76.816-170.69-170.692v-682.62c0-93.938 76.812-170.688 170.69-170.688h682.62c93.878 0 170.69 76.75 170.69 170.69v682.618c0 93.876-76.812 170.692-170.69 170.692zM812.868 521.874c-33.958-191.296-223.708-353.296-280.78-390.31-57.088-37.006-109.154 14.822-128.038 53.994-21.616 44.708-86.41 286.94-103.368 307.020-16.964 20.038-67.876-20.080-67.876-20.080l-24.692 32.376c0 0 103.382 123.448 182.040 138.878 83.404 16.366 83.28-128.066 103.34-208.242 19.4-77.564 32.44-121.952 49.376-121.952 16.97 0 49.382 43.262 84.852 109.57 35.536 66.376-1.538 125.010-70.972 83.292 27.786 166.652 290.062 206.72 256.118 15.454z" />
<glyph unicode="&#xe920;" glyph-name="tumblr2" d="M853.38 960h-682.692c-93.878 0-170.686-76.814-170.686-170.686v-682.626c0-93.938 76.808-170.688 170.686-170.688h682.692c93.87 0 170.62 76.75 170.62 170.688v682.628c-0.008 93.87-76.758 170.684-170.62 170.684zM731.716 135.312c-30.152-14.188-57.528-24.188-82-29.938-24.496-5.69-50.96-8.558-79.402-8.558-32.312 0-51.376 4.058-76.188 12.188-24.808 8.188-46 19.872-63.5 34.872-17.558 15.128-29.686 31.198-36.466 48.194-6.784 17.004-10.156 41.692-10.156 74.004v247.802h-95.996v100.066c27.744 9 59.936 21.934 79.684 38.75 19.84 16.872 35.718 37.058 47.684 60.684 12.004 23.566 20.25 53.626 24.752 90.066h100.5v-163.442h163.372v-126.126h-163.378v-181.188c0-41-0.528-64.626 3.816-76.25 4.312-11.56 15.126-23.56 26.902-30.5 15.656-9.376 33.504-14.060 53.626-14.060 35.786 0 71.378 11.626 106.75 34.876v-111.44z" />
<glyph unicode="&#xe921;" glyph-name="linkedin" d="M852 960h-680c-94.6 0-172-77.4-172-172v-680c0-94.6 77.4-172 172-172h680c94.6 0 172 77.4 172 172v680c0 94.6-77.4 172-172 172zM384 128h-128v448h128v-448zM320 640c-35.346 0-64 28.654-64 64s28.654 64 64 64 64-28.654 64-64-28.654-64-64-64zM832 128h-128v256c0 35.346-28.654 64-64 64s-64-28.654-64-64v-256h-128v448h128v-79.472c26.398 36.264 66.752 79.472 112 79.472 79.53 0 144-71.634 144-160v-288z" />
<glyph unicode="&#xe922;" glyph-name="pinterest2" d="M853.35 960h-682.704c-94.25 0-170.646-76.42-170.646-170.686v-682.63c0-94.266 76.398-170.684 170.646-170.684h682.704c94.25 0 170.65 76.418 170.65 170.684v682.63c0 94.266-76.4 170.686-170.65 170.686zM573.288 155.976c-51.886 0-100.652 26.958-117.35 58.796 0 0-25.674-97.766-31.896-121.71-11.562-44.468-42.766-100.218-63.64-134.226l-34.986 12.394c-4.478 40.508-8.518 102.644 1.774 146.876 9.298 39.954 60.040 254.5 60.040 254.5s-15.32 30.664-15.32 76.008c0 71.19 41.268 124.336 92.64 124.336 43.684 0 64.786-32.794 64.786-72.12 0-43.928-27.964-109.604-42.404-170.464-12.060-50.972 25.556-92.536 75.814-92.536 91.008 0 160.958 95.96 160.958 234.466 0 122.584-88.088 208.298-213.87 208.298-145.676 0-231.186-109.274-231.186-222.19 0-44.008 16.95-91.196 38.102-116.844 4.182-5.070 4.792-9.516 3.548-14.68-3.884-16.18-12.522-50.96-14.216-58.076-2.234-9.368-7.422-11.356-17.124-6.842-63.95 29.77-103.926 123.264-103.926 198.348 0 161.51 117.348 309.834 338.294 309.834 177.61 0 315.634-126.56 315.634-295.704 0.004-176.456-111.252-318.464-265.672-318.464z" />
</font>
</defs>
</svg>
